<svg width="512" height="512" viewBox="0 0 512 512" xmlns="http://www.w3.org/2000/svg" role="img" aria-label="Codeify">
  <defs>
    <linearGradient id="g" x1="0" y1="0" x2="1" y2="1">
      <stop offset="0%" stop-color="#a855f7"/>
      <stop offset="100%" stop-color="#60a5fa"/>
    </linearGradient>
    <filter id="shadow" x="-20%" y="-20%" width="140%" height="140%">
      <feDropShadow dx="0" dy="6" stdDeviation="8" flood-color="rgba(0,0,0,.35)"/>
    </filter>
  </defs>
  <rect x="32" y="32" rx="112" ry="112" width="448" height="448" fill="#0f0f12"/>
  <g filter="url(#shadow)">
    <circle cx="256" cy="256" r="168" fill="url(#g)" opacity="0.14"/>
    <path d="M186 256l-58-46c-6-5-7-14-2-20l8-10c5-6 14-7 20-2l86 68c4 3 4 9 0 12l-86 68c-6 5-15 4-20-2l-8-10c-5-6-4-15 2-20l58-46zm200-76l-8-10c-5-6-14-7-20-2l-86 68c-4 3-4 9 0 12l86 68c6 5 15 4 20-2l8-10c5-6 4-15-2-20l-58-46 58-46c6-5 7-14 2-20z" fill="url(#g)"/>
  </g>
</svg>

